<?xml version="1.0" encoding="UTF-8" standalone="no"?><!DOCTYPE svg PUBLIC "-//W3C//DTD SVG 1.1//EN" "http://www.w3.org/Graphics/SVG/1.1/DTD/svg11.dtd"><svg width="100%" height="100%" viewBox="0 0 2059 822" version="1.1" xmlns="http://www.w3.org/2000/svg" xmlns:xlink="http://www.w3.org/1999/xlink" xml:space="preserve" xmlns:serif="http://www.serif.com/" style="fill-rule:evenodd;clip-rule:evenodd;stroke-linejoin:round;stroke-miterlimit:2;"><path id="path1" d="M147.239,408.008c14.328,-13.772 30.3,-25.894 46.272,-36.361c18.722,-11.561 36.35,-17.072 52.322,-17.072c20.378,0 37.461,9.367 50.122,24.789c8.261,10.467 14.322,22.583 18.183,35.806c1.1,2.2 0.544,5.506 2.75,7.156c2.756,-1.1 3.306,-3.85 4.406,-6.056c17.072,-30.844 37.456,-60.594 58.383,-89.783c22.033,-31.944 47.917,-61.689 76.567,-89.228c19.278,-18.183 41.311,-34.156 64.994,-44.617c16.528,-7.161 33.6,-11.017 50.122,-11.017c28.094,0 53.428,11.567 68.3,37.45c12.117,22.033 16.522,47.372 17.072,73.811c0.55,26.989 -3.3,55.083 -8.817,83.172c-5.506,28.644 -12.111,57.833 -19.272,87.028c-8.811,35.806 -18.733,71.6 -27.544,107.961l-12.667,50.667c-1.65,7.161 -3.85,8.817 -10.467,9.917c-8.256,1.106 -16.522,2.206 -24.228,2.206c-6.061,0 -12.122,-0.556 -18.183,-1.656c-2.75,-0.55 -6.606,-0.55 -9.911,-0.55l-13.217,0c-5.517,0 -6.617,-1.65 -5.517,-8.261c2.211,-9.911 3.306,-19.822 6.061,-30.289c8.267,-33.6 17.078,-67.75 25.894,-101.906c3.3,-12.117 6.606,-23.683 9.911,-35.806l1.656,-8.811c7.711,-36.894 18.167,-73.806 20.378,-110.161c1.1,-14.867 1.1,-29.739 -1.1,-43.511c-1.111,-7.711 -3.306,-14.322 -7.161,-20.378c-3.306,-4.961 -7.711,-7.711 -13.217,-7.711c-3.311,0 -7.167,1.1 -12.122,3.306c-11.022,5.506 -21.483,13.217 -30.844,22.583c-26.994,25.889 -50.122,53.972 -71.056,84.272c-42.967,60.589 -72.156,125.583 -99.694,191.128c-3.856,8.811 -3.856,9.367 -13.222,11.567c-25.339,6.611 -50.667,10.467 -75.456,14.317c-1.65,0 -2.761,0.556 -3.856,0.556c-3.311,0 -4.411,-1.656 -4.956,-6.606c-0.556,-9.922 -0.556,-20.389 -0.556,-30.3c0.556,-27.539 1.1,-55.078 -1.65,-81.517c-1.656,-9.367 -3.306,-18.733 -7.161,-26.989c-1.65,-3.311 -3.306,-4.961 -5.506,-4.961c-1.656,0 -3.861,1.106 -7.167,3.306c-7.161,4.961 -13.211,9.911 -18.728,15.428c-33.044,31.389 -60.033,66.094 -84.267,103c-9.367,14.867 -16.528,30.289 -24.783,45.711c-1.656,2.761 -3.306,5.511 -4.417,7.711c-5.506,10.467 -8.811,14.322 -15.417,14.322c-2.756,0 -6.061,-0.55 -10.467,-1.65c-15.972,-4.956 -32.5,-9.367 -49.017,-14.322c-9.367,-2.756 -9.922,-3.3 -8.267,-13.767c4.406,-43.517 12.667,-87.028 22.033,-130.539c6.056,-25.339 12.117,-51.233 17.622,-76.561c3.311,-15.428 6.061,-30.3 9.917,-45.722l0.55,-3.306c1.1,-5.511 3.306,-6.061 9.911,-6.611c23.133,-1.65 45.722,-3.306 68.306,-4.956l1.656,0c4.406,0 4.406,1.65 3.3,7.161c-7.161,33.05 -14.322,66.094 -21.483,99.694c0,0 0.556,0 0.556,1.1c12.111,-11.567 22.578,-23.133 34.144,-34.144" style="fill-rule:nonzero;"/><path id="path3" d="M938.805,409.662c10.467,-41.867 -8.811,-93.089 -69.406,-94.194l-1.094,0c-56.733,0 -105.206,47.922 -116.767,94.194c-11.567,47.361 17.072,93.083 67.75,93.083l5.506,0c51.222,0 102.444,-45.722 114.011,-93.083m-138.8,175.706c-96.394,-0.556 -154.222,-79.872 -130.539,-175.161l0.544,-2.2c24.244,-96.394 122.839,-174.606 220.322,-174.606c96.944,0.55 155.328,79.317 131.094,176.806c-24.783,96.944 -122.828,175.161 -221.422,175.161" style="fill-rule:nonzero;"/><path id="path5" d="M1313.254,409.662c10.467,-41.867 -8.811,-93.089 -69.406,-94.194l-1.1,0c-56.728,0 -105.2,47.922 -116.761,94.194c-11.567,47.361 17.072,93.083 67.75,93.083l5.506,0c51.222,0 102.444,-45.722 114.011,-93.083m-138.8,175.706c-96.394,-0.556 -154.222,-79.872 -130.539,-175.161l0.544,-2.2c24.239,-96.394 122.839,-174.606 220.322,-174.606c96.944,0.55 155.328,79.317 131.094,176.806c-24.783,96.944 -122.828,175.161 -221.422,175.161" style="fill-rule:nonzero;"/><path id="path7" d="M1620.932,405.256l-112.911,175.15c-6.606,9.922 -12.667,19.833 -20.383,29.744c-3.85,5.506 -6.056,7.161 -8.811,7.161c-1.656,0 -3.85,-0.544 -6.606,-1.656c-8.267,-3.3 -15.428,-6.061 -23.683,-8.256c-2.756,-0.556 -4.961,-1.1 -7.717,-1.1c-2.75,0 -6.056,0.544 -8.811,1.1c-3.306,0.55 -6.061,1.094 -8.267,1.094c-7.161,0 -9.361,-3.306 -8.811,-12.661c0,-34.156 2.761,-68.306 3.856,-102.45c3.311,-79.867 6.606,-159.183 10.467,-239.056c0.55,-6.056 1.1,-12.117 2.2,-18.172l0,-2.206c1.656,-4.956 3.861,-6.061 9.917,-8.261c21.483,-5.506 42.417,-8.267 63.894,-12.672c1.656,-0.55 2.756,-0.55 3.85,-0.55c6.061,0 9.367,3.311 9.922,10.467c-0.556,9.367 -1.106,18.728 -1.106,28.094l-1.1,4.406c-1.656,2.75 -2.756,5.506 -3.306,8.261c-1.656,7.711 -1.1,14.872 -1.656,22.033c-2.2,51.222 -4.4,101.9 -6.606,153.128c-0.556,2.194 -0.556,4.406 0.556,5.506c3.294,-0.556 3.85,-3.311 4.95,-5.506c36.906,-56.739 73.256,-114.022 110.161,-171.306c6.611,-9.367 12.122,-19.278 19.833,-28.644c4.406,-5.506 7.161,-7.706 11.011,-7.706c1.656,0 3.861,0 6.061,1.1c3.306,1.1 6.061,1.65 9.367,1.65c8.261,0 16.528,-3.306 25.339,-4.956c1.644,-0.55 3.3,-1.656 4.95,-2.206c1.656,-0.55 3.311,-0.55 4.406,-0.55c3.856,0 4.961,1.65 5.511,6.061c1.65,9.911 2.206,20.378 2.206,30.844c2.2,36.9 3.306,74.356 4.95,111.811c1.111,34.706 2.761,68.85 3.861,103.556c0,3.3 0.556,6.061 1.1,9.361c3.306,-1.656 4.406,-4.411 5.506,-6.606c35.806,-65 71.611,-129.994 106.861,-194.989c15.972,-28.094 31.394,-56.733 46.267,-84.828c2.206,-3.85 4.406,-6.606 4.961,-10.467l1.094,-5.506c1.1,-4.956 4.411,-9.911 7.161,-14.317c3.306,-6.611 87.628,-159.044 92.033,-165.656c2.756,-4.411 3.856,-5.506 6.606,-5.506c1.1,0 2.756,0 4.961,0.55c19.828,3.306 36.906,11.567 56.178,17.072c6.061,1.656 8.267,5.506 7.167,11.567c-0.556,1.656 -1.106,3.306 -2.206,5.511c-13.222,26.439 -109.106,198.15 -123.428,224.589c-48.472,88.678 -96.939,177.356 -145.967,265.483c-18.172,34.156 -37.45,68.306 -55.628,102.45c-1.1,1.106 -1.656,2.206 -2.756,3.861c-6.606,11.011 -8.256,14.317 -13.772,14.317c-2.75,0 -6.05,-1.1 -11.567,-2.2c-9.911,-2.206 -19.822,-4.406 -29.189,-7.711c-2.2,-0.556 -3.856,-1.1 -6.061,-1.1c-2.75,0 -5.506,0.544 -8.261,1.644c-4.406,1.111 -7.711,2.211 -10.461,2.211c-6.606,0 -8.817,-3.856 -9.361,-13.778l-5.517,-110.706c-1.094,-36.906 -2.194,-74.361 -4.406,-111.267c0,-2.2 1.111,-4.95 -1.65,-6.606c-3.3,2.756 -4.956,6.061 -7.161,9.367" style="fill-rule:nonzero;"/><path id="path9" d="M780.7,724.022l0,25.633l50.4,0c5.644,0 8.689,2.172 8.689,8.472l0,2.606c0,5.867 -3.044,8.472 -8.689,8.472l-50.4,0l0,30.633l61.694,0c5.644,0 8.25,2.822 8.25,8.467l0,3.261c0,6.083 -2.389,8.689 -8.25,8.689l-75.383,0c-6.3,0 -9.339,-3.478 -9.339,-9.561l0,-98.183c0,-6.083 3.039,-9.344 9.339,-9.344l75.383,0c5.644,0 8.25,2.606 8.25,8.472l0,3.261c0,6.078 -2.167,9.122 -8.25,9.122l-61.694,0Z" style="fill-rule:nonzero;"/><path id="path11" d="M962.307,712.508l0,98.189c0,6.083 -2.606,9.561 -9.339,9.561l-3.911,0c-3.911,0 -6.3,-1.961 -8.689,-5.433l-53.222,-67.994l0,63.867c0,6.083 -2.606,9.561 -9.561,9.561l-4.122,0c-6.3,0 -9.344,-3.478 -9.344,-9.561l0,-98.189c0,-6.517 3.044,-9.339 9.344,-9.339l6.511,0c3.044,0 6.089,1.083 8.039,4.128l51.272,66.906l0,-61.694c0,-6.3 3.256,-9.339 9.556,-9.339l4.128,0c6.733,0 9.339,2.822 9.339,9.339" style="fill-rule:nonzero;"/><path id="path13" d="M1012.709,703.167l44.967,0c6.517,0 9.561,3.039 9.561,9.339l0,2.172c0,5.65 -3.694,9.122 -9.561,9.122l-46.922,0c-6.517,0.222 -9.339,2.394 -9.556,8.039c-0.433,10.428 30.411,15.644 53.006,23.028c19.117,6.083 28.239,17.817 28.239,33.672c0,19.333 -16.294,33.456 -54.094,33.456c-25.633,0 -46.483,-4.128 -53.217,-29.983c-2.172,-7.6 0.217,-10.422 8.033,-10.422l16.728,0c1.522,13.467 15.861,19.983 28.456,19.983c19.772,0 29.328,-2.389 29.328,-12.383c0,-6.083 -6.3,-11.728 -16.944,-14.339c-24.111,-6.733 -36.061,-10.206 -36.061,-10.206c-19.111,-5.867 -27.372,-16.944 -27.372,-33.022c1.306,-18.9 12.389,-28.672 35.411,-28.456" style="fill-rule:nonzero;"/><path id="path15" d="M1118.071,724.022l0,25.633l50.4,0c5.644,0 8.689,2.172 8.689,8.472l0,2.606c0,5.867 -3.044,8.472 -8.689,8.472l-50.4,0l0,41.489c0,6.083 -3.694,9.561 -9.561,9.561l-4.128,0c-6.3,0 -9.339,-3.478 -9.339,-9.561l0,-97.967c0,-6.083 3.039,-9.561 9.339,-9.561l75.383,0c5.644,0 8.25,2.828 8.25,8.689l0,3.261c0,6.083 -2.167,8.906 -8.25,8.906l-61.694,0Z" style="fill-rule:nonzero;"/><path id="path17" d="M1224.52,724.022l0,25.633l50.4,0c5.644,0 8.689,2.172 8.689,8.472l0,2.606c0,5.867 -3.044,8.472 -8.689,8.472l-50.4,0l0,30.633l61.694,0c5.644,0 8.25,2.822 8.25,8.467l0,3.261c0,6.083 -2.389,8.689 -8.25,8.689l-75.383,0c-6.3,0 -9.339,-3.478 -9.339,-9.561l0,-98.183c0,-6.083 3.039,-9.344 9.339,-9.344l75.383,0c5.644,0 8.25,2.606 8.25,8.472l0,3.261c0,6.078 -2.167,9.122 -8.25,9.122l-61.694,0Z" style="fill-rule:nonzero;"/><path id="path19" d="M1379.192,763.993l-14.117,-34.322l-14.122,34.322l28.239,0Zm-36.278,19.767l-11.511,29.111c-1.739,5.211 -5.217,7.383 -10.428,7.383l-6.517,0c-7.389,0 -9.994,-3.256 -7.389,-10.211l40.406,-99.272c1.956,-5.211 5.433,-7.606 11.3,-7.606l12.378,0c5.867,0 9.778,2.394 11.517,7.606l40.406,99.272c2.606,6.956 0,10.211 -7.389,10.211l-6.517,0c-4.994,0 -8.256,-2.389 -10.428,-7.6l-11.511,-28.894l-44.317,0Z" style="fill-rule:nonzero;"/><path id="path21" d="M632.816,808.187c3.022,-2.094 4.533,-5.033 4.533,-8.806c0,-3.639 -1.511,-6.489 -4.533,-8.544c-3.017,-2.056 -7.2,-3.083 -12.556,-3.083l-20.378,0l0,23.461l20.378,0c5.356,0.072 9.539,-0.939 12.556,-3.028m-2.206,-32.222c2.433,-1.883 3.656,-4.578 3.656,-8.078c0,-3.433 -1.222,-6.072 -3.656,-7.928c-2.439,-1.85 -5.889,-2.744 -10.35,-2.672l-20.378,0l0,21.511l20.378,0c4.461,0 7.911,-0.944 10.35,-2.833m7.506,-22.95c4.222,3.189 6.339,7.606 6.339,13.228c0,4.117 -1.172,7.594 -3.506,10.444c-2.333,2.844 -5.522,4.756 -9.572,5.711c5.006,0.761 8.939,2.767 11.789,6.017c2.844,3.272 4.272,7.328 4.272,12.2c0,6.178 -2.322,11 -6.95,14.461c-4.633,3.467 -11.033,5.2 -19.2,5.2l-31.289,0l0,-72.044l30.778,0c7.339,0 13.122,1.594 17.339,4.783" style="fill-rule:nonzero;"/><path id="path23" d="M717.527,748.229l-26.967,47.35l0,24.694l-9.883,0l0,-24.283l-27.378,-47.761l10.083,0l22.233,36.744l21.822,-36.744l10.089,0Z" style="fill-rule:nonzero;"/></svg>