<?xml version="1.0" encoding="UTF-8" standalone="no"?><!DOCTYPE svg PUBLIC "-//W3C//DTD SVG 1.1//EN" "http://www.w3.org/Graphics/SVG/1.1/DTD/svg11.dtd"><svg width="100%" height="100%" viewBox="0 0 477 445" version="1.1" xmlns="http://www.w3.org/2000/svg" xmlns:xlink="http://www.w3.org/1999/xlink" xml:space="preserve" xmlns:serif="http://www.serif.com/" style="fill-rule:evenodd;clip-rule:evenodd;stroke-linejoin:round;stroke-miterlimit:2;"><path d="M266.481,61.864c-0.652,-1.923 -0.562,-1.974 -0.704,-2.077c-8.798,-6.387 -13.81,-25.39 -10.92,-35.199c2.662,-9.035 5.565,-8.113 14.16,-4.411c25.437,10.958 15.048,38.893 16.025,42.261c0.795,2.741 26.971,4.703 35.882,3.676c6.218,-0.717 -1.964,-9.151 4.999,-23.666c6.285,-13.103 26.912,-20.741 27.869,-20.715c3.719,0.103 11.328,26.655 -9.293,39.487c-7.773,4.837 2.727,3.049 12.797,0.946c30.677,-6.405 23.279,-37.233 34.159,-43.346c9.549,-5.366 9.898,14.396 13.211,17.143c8.361,6.932 13.697,-23.223 18.403,-26.726c13.479,-10.034 13.697,15.104 18.865,17.802c9.774,5.102 13.975,-17.478 15.73,-21.007c2.537,-5.102 19.19,-16.221 18.569,16.248c-0.581,30.334 -7.034,41.286 -8.873,44.407c-19.358,32.853 -75.311,16.139 -112.399,20.253c-2.911,0.323 -1.841,6.658 -1.552,9.461c0.461,4.48 35.236,56.844 32.191,118.709c-0.945,19.206 -37.867,31.648 -58.898,33.519c-36.133,3.214 -33.742,-56.767 -42.364,-66.371c-7.564,-8.425 -0.258,8.416 -4.887,29.258c-0.877,3.948 -4.95,3.53 -7.545,-5.978c-3.876,-14.203 -2.522,15.74 -8.374,12.525c-5.653,-3.106 -3.973,-14.512 -4.065,-14.555c-5.34,-2.496 -3.584,28.533 -15.638,53.014c-14.366,29.178 -3.343,41.06 -8.248,83.28c-5.912,50.888 20.116,61.564 28.56,81.19c8.227,19.122 -28.71,16.401 -43.322,10.667c-4.917,-1.929 0.689,-16.37 0.836,-20.201c0.174,-4.542 -6.486,0.611 -6.072,-3.527c0.67,-6.699 3.635,-36.33 -11.449,-83.37c-11.518,-35.919 -8.173,12.777 -9.544,24.524c-1.164,9.975 -10.112,10.003 0.256,63.597c1.86,9.614 11.882,14.982 8.786,27.121c-1.06,4.157 -20.013,6.065 -28.594,4.793c-25.426,-3.77 -14.437,-16.99 -12.193,-22.647c1.402,-3.533 -5.409,-0.96 -4.193,-4.594c4.627,-13.827 9.815,-14.608 3.098,-143.431c-0.272,-5.216 -2.732,-2.903 -7.849,-2.407c-38.487,3.732 -40.032,2.056 -41.446,5.781c-13.067,34.429 -15.47,33.447 -15.867,36.615c-5.051,40.306 6.027,64.06 8.381,69.107c11.75,25.195 26.023,18.102 25.138,35.475c-0.329,6.448 -17.697,12.677 -35.97,4.311c-11.925,-5.46 -2.194,-16.149 -12.048,-24.167c-6.341,-5.16 -4.221,-6.345 -4.383,-11.876c-1.383,-47.051 -14.097,-79.369 -15.988,-81.838c-3.033,-3.962 -33.196,28.231 -24.429,77.181c3.587,20.029 25.007,27.869 24.084,42.317c-0.681,10.659 -3.958,9.574 -14.557,11.163c-21.251,3.184 -29.705,-6.451 -26.424,-13.285c3.876,-8.073 0.013,-7.996 -5.102,-11.045c-5.492,-3.274 6.482,-39.919 -7.315,-95.001c-3.49,-13.934 23.193,-23.081 30.196,-57.733c2.517,-12.455 -1.339,-34.922 -5.042,-30.182c-1.652,2.114 -10.361,13.26 -32.001,10.016c-2.392,-0.359 -0.635,-5.402 2.009,-17.43c8.076,-36.738 30.678,-25.954 33.817,-32.018c17.544,-33.892 23.187,-30.11 75.951,-46.192c30.338,-9.247 35.462,-18.443 64.27,-31.608c21.692,-9.913 88.122,-7.517 86.067,-25.335c-0.95,-8.232 -90.955,12.372 -120.948,-13.104c-14.69,-12.478 -16.869,-61.22 -3.454,-70.008c13.555,-8.879 14.389,20.478 20.166,25.063c14.212,11.28 6.777,-17.939 13.568,-22.097c13.822,-8.462 15.678,21.021 26.185,28.116c10.746,7.257 5.874,-13.241 8.25,-16.021c11.778,-13.778 20.986,48.365 59.469,44.141Z"/><path d="M274.595,111.645c0.118,-1.6 0.943,-12.775 13.43,-14.895c19.666,-3.338 22.835,29.39 2.262,29.839c-15.532,0.339 -15.232,-12.155 -15.692,-14.944Z" style="fill:#fff;"/><path d="M339.621,118.583c-24.127,9.349 -26.27,-25.552 -5.823,-25.763c12.593,-0.13 18.558,17.769 5.823,25.763Z" style="fill:#fff;"/><path d="M295.218,118.814c-9.867,12.941 -22.428,-3.889 -11.716,-10.223c3.405,-2.013 15.451,-0.882 11.716,10.223Z"/><path d="M335.978,103.681c12.231,12.085 -13.027,18.643 -11.642,5.599c1.09,-10.263 10.696,-6.016 11.642,-5.599Z"/></svg>